<svg width="120" height="120" viewBox="14 14 92 92" fill="none" xmlns="http://www.w3.org/2000/svg">
<path d="M52.2138 20.0887C53.8554 20.0062 55.503 20.0686 57.1447 20.0424C58.1344 19.9801 59.1282 19.9901 60.1179 20.0485C62.4413 20.0625 64.7646 20.0344 67.088 20.0625C69.4392 20.0806 71.7088 21.2773 73.1835 23.1094C74.0501 24.0949 74.5767 25.3156 75.2187 26.4499C78.5914 32.6904 81.9821 38.9229 85.3925 45.1433C91.1065 55.7198 96.8026 66.3084 102.564 76.8588C103.946 79.5094 105.867 82.0796 105.975 85.1929C106.219 88.1653 104.669 91.1941 102.147 92.7245C99.2015 94.5325 96.1905 96.2279 93.2132 97.9836C92.3904 98.4341 91.5895 98.9288 90.7369 99.325C88.5685 100.319 85.9331 100.218 83.8702 99.0053C78.3967 96.0047 72.951 92.9498 67.4894 89.9291C65.9551 89.0844 64.4466 88.1935 62.8706 87.4333C61.0659 86.5765 58.8758 86.4257 57.0493 87.3005C55.5289 88.0105 54.08 88.8632 52.5993 89.6515C47.1477 92.5657 41.7656 95.6085 36.3518 98.593C35.4336 99.0898 34.5173 99.6368 33.4799 99.8298C31.6514 100.266 29.7216 99.8037 28.1237 98.8625C24.8086 96.9358 21.5412 94.9328 18.2599 92.9498C15.9345 91.6043 14.2193 89.1226 14.0325 86.3895C13.8199 84.0405 14.6785 81.7619 15.7775 79.7367C25.3134 62.2298 34.7658 44.6767 44.3295 27.186C45.2377 25.6434 45.8896 23.9058 47.1795 22.6328C48.5012 21.235 50.3118 20.3059 52.2138 20.0887ZM58.8141 53.769C57.4607 54.1149 56.3358 55.1285 55.6978 56.3694C54.6186 58.4147 53.4579 60.4158 52.335 62.439C48.3163 69.6569 44.3692 76.9191 40.3645 84.1471C40.0306 84.7746 39.8418 85.4805 39.8636 86.1984C39.8159 87.8455 40.9945 89.4585 42.5865 89.8506C43.4868 90.0538 44.4825 90.0155 45.3053 89.559C53.2214 85.0541 61.1931 80.6457 69.147 76.2112C69.938 75.7687 70.7807 75.3645 71.4028 74.6847C72.5297 73.4258 72.641 71.4187 71.7705 69.9867C69.2066 65.2807 66.5673 60.6209 63.9955 55.9189C62.9858 54.1371 60.7658 53.2763 58.8141 53.769Z" fill="#262423"/>
</svg>
